<svg width="1200" height="630" viewBox="0 0 1200 630" xmlns="http://www.w3.org/2000/svg" fill="none">
  <defs>
    <linearGradient id="bg" x1="90" y1="40" x2="1120" y2="620" gradientUnits="userSpaceOnUse">
      <stop offset="0" stop-color="#0E1A2E"/>
      <stop offset="1" stop-color="#091425"/>
    </linearGradient>
    <linearGradient id="panel" x1="150" y1="90" x2="1030" y2="540" gradientUnits="userSpaceOnUse">
      <stop offset="0" stop-color="#FFFFFF" stop-opacity="0.08"/>
      <stop offset="1" stop-color="#FFFFFF" stop-opacity="0.03"/>
    </linearGradient>
    <linearGradient id="brandAccent" x1="0" y1="0" x2="1" y2="1">
      <stop offset="0" stop-color="#7ED2C4"/>
      <stop offset="1" stop-color="#4F9CB6"/>
    </linearGradient>
  </defs>

  <rect width="1200" height="630" fill="url(#bg)"/>
  <circle cx="1080" cy="80" r="220" fill="#6EA8C5" fill-opacity="0.1"/>
  <circle cx="150" cy="620" r="220" fill="#5EA89A" fill-opacity="0.08"/>

  <rect x="100" y="70" width="1000" height="490" rx="36" fill="url(#panel)" stroke="#FFFFFF" stroke-opacity="0.14"/>

  <g transform="translate(170 180)">
    <rect x="0" y="0" width="160" height="160" rx="42" fill="#0F1A2E"/>
    <rect x="0" y="0" width="160" height="160" rx="42" stroke="#FFFFFF" stroke-opacity="0.2" stroke-width="2"/>
    <path
      d="M80 30L118 46V80C118 106 101 127 80 138C59 127 42 106 42 80V46L80 30Z"
      stroke="#EAF2FB"
      stroke-width="8"
      stroke-linejoin="round"
    />
    <path d="M61 86L75 100L99 76" stroke="url(#brandAccent)" stroke-width="8" stroke-linecap="round" stroke-linejoin="round"/>
    <path d="M80 56V114" stroke="#DCE7F5" stroke-opacity="0.75" stroke-width="3.5" stroke-linecap="round"/>
  </g>

  <text x="380" y="250" fill="#ECF4FF" font-family="Space Grotesk, Avenir Next, sans-serif" font-size="68" font-weight="700">
    TCN Comply Malta
  </text>
  <text x="380" y="312" fill="#BDD3E8" font-family="Manrope, Segoe UI, sans-serif" font-size="30" font-weight="600">
    Compliance Operations Platform for Maltese Employers
  </text>
  <text x="380" y="380" fill="#D7E8F6" font-family="Manrope, Segoe UI, sans-serif" font-size="28">
    Audit-ready workflows, controlled access, and regulator-ready evidence trails.
  </text>
</svg>
