<svg xmlns="http://www.w3.org/2000/svg" width="1200" height="760" viewBox="0 0 1200 760" fill="none">
  <defs>
    <linearGradient id="panel" x1="40" y1="30" x2="1180" y2="740" gradientUnits="userSpaceOnUse">
      <stop offset="0" stop-color="#13233A"/>
      <stop offset="1" stop-color="#0D1728"/>
    </linearGradient>
    <linearGradient id="accent" x1="0" y1="0" x2="1" y2="1">
      <stop offset="0" stop-color="#7ED2C4"/>
      <stop offset="1" stop-color="#4F9CB6"/>
    </linearGradient>
  </defs>

  <rect width="1200" height="760" rx="28" fill="url(#panel)"/>
  <rect x="28" y="28" width="1144" height="704" rx="24" stroke="#FFFFFF" stroke-opacity="0.16"/>

  <rect x="64" y="82" width="240" height="620" rx="18" fill="#101A2D" stroke="#FFFFFF" stroke-opacity="0.08"/>
  <rect x="96" y="118" width="176" height="12" rx="6" fill="#9CB9D7" fill-opacity="0.8"/>
  <rect x="96" y="154" width="156" height="10" rx="5" fill="#7FA1C5" fill-opacity="0.6"/>
  <rect x="96" y="184" width="170" height="10" rx="5" fill="#7FA1C5" fill-opacity="0.6"/>
  <rect x="96" y="214" width="148" height="10" rx="5" fill="#7FA1C5" fill-opacity="0.6"/>

  <rect x="344" y="82" width="792" height="188" rx="18" fill="#101A2D" stroke="#FFFFFF" stroke-opacity="0.08"/>
  <rect x="378" y="118" width="240" height="14" rx="7" fill="#DCEBFF" fill-opacity="0.9"/>
  <rect x="378" y="152" width="420" height="10" rx="5" fill="#8EABC8" fill-opacity="0.72"/>
  <rect x="378" y="180" width="360" height="10" rx="5" fill="#8EABC8" fill-opacity="0.72"/>
  <rect x="890" y="118" width="210" height="110" rx="14" fill="url(#accent)" fill-opacity="0.2" stroke="#7ED2C4" stroke-opacity="0.55"/>
  <rect x="922" y="152" width="148" height="12" rx="6" fill="#D6F4EE" fill-opacity="0.9"/>
  <rect x="922" y="178" width="110" height="8" rx="4" fill="#D6F4EE" fill-opacity="0.6"/>

  <rect x="344" y="300" width="378" height="402" rx="18" fill="#101A2D" stroke="#FFFFFF" stroke-opacity="0.08"/>
  <rect x="378" y="336" width="210" height="12" rx="6" fill="#DCEBFF" fill-opacity="0.9"/>
  <rect x="378" y="368" width="298" height="10" rx="5" fill="#8EABC8" fill-opacity="0.7"/>
  <rect x="378" y="396" width="320" height="10" rx="5" fill="#8EABC8" fill-opacity="0.7"/>
  <rect x="378" y="424" width="284" height="10" rx="5" fill="#8EABC8" fill-opacity="0.7"/>

  <rect x="756" y="300" width="380" height="188" rx="18" fill="#101A2D" stroke="#FFFFFF" stroke-opacity="0.08"/>
  <rect x="790" y="336" width="196" height="12" rx="6" fill="#DCEBFF" fill-opacity="0.9"/>
  <rect x="790" y="372" width="130" height="78" rx="12" fill="url(#accent)" fill-opacity="0.25"/>
  <rect x="934" y="372" width="168" height="10" rx="5" fill="#8EABC8" fill-opacity="0.7"/>
  <rect x="934" y="400" width="148" height="10" rx="5" fill="#8EABC8" fill-opacity="0.7"/>
  <rect x="934" y="428" width="160" height="10" rx="5" fill="#8EABC8" fill-opacity="0.7"/>

  <rect x="756" y="514" width="380" height="188" rx="18" fill="#101A2D" stroke="#FFFFFF" stroke-opacity="0.08"/>
  <rect x="790" y="550" width="240" height="12" rx="6" fill="#DCEBFF" fill-opacity="0.9"/>
  <rect x="790" y="584" width="310" height="10" rx="5" fill="#8EABC8" fill-opacity="0.7"/>
  <rect x="790" y="612" width="294" height="10" rx="5" fill="#8EABC8" fill-opacity="0.7"/>
  <rect x="790" y="640" width="250" height="10" rx="5" fill="#8EABC8" fill-opacity="0.7"/>
</svg>
